<mxfile host="65bd71144e">
    <diagram id="ase1mIMLt8a5bYCCuUNp" name="PÃ¡gina-1">
        <mxGraphModel dx="622" dy="429" grid="1" gridSize="10" guides="1" tooltips="1" connect="1" arrows="1" fold="1" page="1" pageScale="1" pageWidth="827" pageHeight="1169" math="0" shadow="0">
            <root>
                <mxCell id="0"/>
                <mxCell id="1" parent="0"/>
                <mxCell id="6" value="" style="shape=dataStorage;whiteSpace=wrap;html=1;fixedSize=1;fillColor=#FFFFFF;fontColor=#ffffff;strokeColor=#60A917;strokeWidth=2;" parent="1" vertex="1">
                    <mxGeometry x="160" y="160" width="300" height="80" as="geometry"/>
                </mxCell>
                <mxCell id="3" value="" style="rounded=0;whiteSpace=wrap;html=1;fillColor=none;fontColor=#ffffff;strokeColor=#60A917;dashed=1;strokeWidth=2;" parent="1" vertex="1">
                    <mxGeometry x="60" y="170" width="40" height="60" as="geometry"/>
                </mxCell>
                <mxCell id="4" value="" style="rounded=0;whiteSpace=wrap;html=1;fillColor=#008a00;fontColor=#ffffff;strokeColor=#005700;" parent="1" vertex="1">
                    <mxGeometry x="190" y="170" width="40" height="60" as="geometry"/>
                </mxCell>
                <mxCell id="5" value="" style="rounded=0;whiteSpace=wrap;html=1;fillColor=#008a00;fontColor=#ffffff;strokeColor=#005700;" parent="1" vertex="1">
                    <mxGeometry x="240" y="170" width="40" height="60" as="geometry"/>
                </mxCell>
                <mxCell id="7" value="" style="rounded=0;whiteSpace=wrap;html=1;fillColor=#008a00;fontColor=#ffffff;strokeColor=#005700;" parent="1" vertex="1">
                    <mxGeometry x="290" y="170" width="40" height="60" as="geometry"/>
                </mxCell>
                <mxCell id="8" value="" style="rounded=0;whiteSpace=wrap;html=1;fillColor=#008a00;fontColor=#ffffff;strokeColor=#005700;" parent="1" vertex="1">
                    <mxGeometry x="510" y="170" width="40" height="60" as="geometry"/>
                </mxCell>
                <mxCell id="10" value="" style="endArrow=classic;html=1;fillColor=#60a917;strokeColor=#2D7600;strokeWidth=4;entryX=1;entryY=0.5;entryDx=0;entryDy=0;exitX=0;exitY=0.5;exitDx=0;exitDy=0;" parent="1" source="8" target="22" edge="1">
                    <mxGeometry width="50" height="50" relative="1" as="geometry">
                        <mxPoint x="500" y="200.25" as="sourcePoint"/>
                        <mxPoint x="450" y="199.63" as="targetPoint"/>
                    </mxGeometry>
                </mxCell>
                <mxCell id="11" value="" style="endArrow=classic;html=1;fillColor=#60a917;strokeColor=#2D7600;strokeWidth=4;exitX=0;exitY=0.5;exitDx=0;exitDy=0;" parent="1" source="4" edge="1">
                    <mxGeometry width="50" height="50" relative="1" as="geometry">
                        <mxPoint x="150" y="200.31" as="sourcePoint"/>
                        <mxPoint x="100" y="200" as="targetPoint"/>
                    </mxGeometry>
                </mxCell>
                <mxCell id="13" value="&lt;h1&gt;Queue (cola)&lt;/h1&gt;&lt;div style=&quot;line-height: 19px;&quot;&gt;Como un stack, este es un tipo de estructura de datos que almacena elementos de la forma FIFO (el primero que entra es el primero que sale).&lt;/div&gt;" style="text;html=1;strokeColor=none;fillColor=none;spacing=5;spacingTop=-20;whiteSpace=wrap;overflow=hidden;rounded=0;fontColor=#60A917;" parent="1" vertex="1">
                    <mxGeometry x="50" y="270" width="500" height="90" as="geometry"/>
                </mxCell>
                <mxCell id="15" value="" style="endArrow=classic;html=1;strokeWidth=4;fillColor=#60a917;strokeColor=#2D7600;" parent="1" edge="1">
                    <mxGeometry width="50" height="50" relative="1" as="geometry">
                        <mxPoint x="210" y="170" as="sourcePoint"/>
                        <mxPoint x="240" y="140" as="targetPoint"/>
                        <Array as="points">
                            <mxPoint x="210" y="140"/>
                        </Array>
                    </mxGeometry>
                </mxCell>
                <mxCell id="16" value="" style="rounded=0;whiteSpace=wrap;html=1;fillColor=#008a00;fontColor=#ffffff;strokeColor=#005700;" parent="1" vertex="1">
                    <mxGeometry x="340" y="170" width="40" height="60" as="geometry"/>
                </mxCell>
                <mxCell id="17" value="" style="endArrow=classic;html=1;strokeWidth=4;fillColor=#60a917;strokeColor=#2D7600;fontColor=#60A917;labelBackgroundColor=default;" parent="1" edge="1">
                    <mxGeometry width="50" height="50" relative="1" as="geometry">
                        <mxPoint x="359.9999999999998" y="230" as="sourcePoint"/>
                        <mxPoint x="330" y="260" as="targetPoint"/>
                        <Array as="points">
                            <mxPoint x="360" y="260"/>
                        </Array>
                    </mxGeometry>
                </mxCell>
                <mxCell id="18" value="Fondo" style="text;html=1;strokeColor=none;fillColor=none;align=center;verticalAlign=middle;whiteSpace=wrap;rounded=0;fontSize=16;fontColor=#60A917;" parent="1" vertex="1">
                    <mxGeometry x="270" y="240" width="60" height="40" as="geometry"/>
                </mxCell>
                <mxCell id="20" value="Frente" style="text;html=1;strokeColor=none;fillColor=none;align=center;verticalAlign=middle;whiteSpace=wrap;rounded=0;fontSize=16;fontColor=#60A917;" parent="1" vertex="1">
                    <mxGeometry x="240" y="120" width="60" height="40" as="geometry"/>
                </mxCell>
                <mxCell id="22" value="" style="rounded=0;whiteSpace=wrap;html=1;fillColor=none;fontColor=#ffffff;strokeColor=#60A917;strokeWidth=2;dashed=1;" parent="1" vertex="1">
                    <mxGeometry x="390" y="170" width="40" height="60" as="geometry"/>
                </mxCell>
            </root>
        </mxGraphModel>
    </diagram>
</mxfile>